<svg id="canvas" height="100%" xmlns="http://www.w3.org/2000/svg" version="1.1" xmlns:xlink="http://www.w3.org/1999/xlink" viewBox="0 0 900 512"><rect width="900" height="512" fill="#000000ff"></rect><path d="M94.34515838498788 273.98447420176444C58.3113198050807 289.5329909186514 12.990628941085504 277.6395456832845 -29.197223110335074 279.04077654457467C-71.38507516175565 280.44200740586484 -122.17301321925598 297.41196066203054 -158.78195392353555 282.3918593695057C-195.39089462781513 267.3717580769809 -218.30567646388153 219.49585921814946 -248.8508673360125 188.9201687894256C-279.3960582081435 158.34447836070171 -326.045964343704 134.86549942461835 -342.0530991563213 98.93771679716247C-358.06023396893863 63.00993416970658 -344.94374937624286 16.12443713985209 -344.89367621171647 -26.646526975309655C-344.8436030471901 -69.4174910904714 -355.91791899002044 -118.60277982095513 -341.75266016916305 -157.68806789380795C-327.58740134830566 -196.77335596666077 -290.5836043124567 -230.24615196206403 -259.9021232865722 -261.15825541242657C-229.2206422606876 -292.07035886278913 -194.63724423555996 -329.9679176541449 -157.66377401385577 -343.1606885959832C-120.69030379215158 -356.35345953782144 -79.02714641520748 -340.17944455153645 -38.06130195634705 -340.31488106345597C2.9045425025133795 -340.4503175753755 36.86174710587528 -359.35733073442753 88.13129273930696 -343.97330766750014C139.40083837273863 -328.58928460057274 223.9522760323564 -282.84357269908253 269.5559718442429 -248.01074266189158C315.1596676561294 -213.17791262470067 353.65317314718936 -172.93086600291787 361.75346761062565 -134.97632744435467C369.85376207406193 -97.02178888579147 327.9143922144974 -61.64507426503536 318.1577386248607 -20.283511310512324C308.401085035224 21.078051644010714 325.07220111543074 78.85418569048926 303.21354607280523 113.19305028278347C281.3548910301797 147.53191487507763 221.81720631707753 158.95110559008936 187.00580836910797 185.7496762432529C152.1944104211384 212.54824689641646 130.37899696489507 258.43595748487746 94.34515838498788 273.98447420176444C58.3113198050807 289.5329909186514 12.990628941085504 277.6395456832845 -29.197223110335074 279.04077654457467 " fill="url(#SvgjsLinearGradient1029)"></path><defs><linearGradient gradientTransform="matrix(1,0,0,1,0,0)" id="SvgjsLinearGradient1029"><stop stop-color="#e71989ff" offset="0"></stop><stop stop-color="#e77719ff" offset="1"></stop></linearGradient></defs></svg>